<svg class="topo-divider" viewBox="0 0 2400 200" preserveAspectRatio="none" xmlns="http://www.w3.org/2000/svg">
  <polyline class="index-contour" points="0,183 26,184 99,185 126,186 162,188 223,186 253,188 292,189 363,181 379,182 411,187 418,175 384,174 379,172 370,172 282,165 253,165 215,162 170,160 126,157 64,153 60,153 0,146"/>
  <polyline points="536,200 505,194 457,200"/>
  <polyline points="0,192 54,194 72,194 126,197 183,200 205,200 253,200 288,200"/>
  <polyline class="index-contour" points="666,200 632,197 595,188 566,175 523,169 505,167 470,163 422,161 379,151 327,150 307,150 253,149 209,147 152,140 126,138 110,137 74,132 16,126 0,123"/>
  <polyline class="index-contour" points="1952,0 1983,13 2001,37 2010,44 2017,45 2021,46 2031,47 2129,50 2147,57 2191,59 2273,44 2273,44 2274,43 2293,7 2296,0"/>
  <polyline class="index-contour" points="0,107 47,115 92,120 126,124 143,126 226,132 246,134 253,134 261,134 331,132 375,130 379,130 383,130 385,132 453,150 505,156 548,161 617,170 632,172 639,173 649,175 707,193 758,200 798,200 869,200 884,200"/>
  <polyline points="155,200 126,200 88,200 49,200 0,200"/>
  <polyline points="375,0 378,0 379,1 380,0 403,0"/>
  <polyline class="index-contour" points="1810,0 1857,13 1895,34 1907,39 1913,44 1978,59 2021,65 2069,71 2116,88 2128,94 2147,98 2209,110 2263,132 2267,134 2274,136 2309,144 2347,150 2355,160 2380,175 2382,182 2389,200"/>
  <polyline class="index-contour" points="0,91 18,94 75,106 126,112 171,116 218,120 253,122 286,120 341,118 379,114 417,118 442,132 478,141 505,144 559,150 574,152 632,159 667,163 720,175 740,182 758,184 795,188 836,192 884,198 920,200"/>
  <polyline class="index-contour" points="51,0 113,5 126,5 147,7 221,11 253,17 300,27 359,44 374,46 379,47 386,46 388,44 446,23 505,16 542,13 615,6 632,4 643,4 687,0"/>
  <polyline class="index-contour" points="2313,200 2298,184 2295,175 2287,171 2274,168 2216,152 2172,132 2161,127 2147,124 2094,113 2080,111 2073,106 2039,88 2030,85 2021,83 2001,81 1934,74 1895,66 1856,57 1840,44 1811,29 1768,17 1740,10 1732,0"/>
  <polyline class="index-contour" points="0,61 43,73 53,88 99,97 126,101 176,105 197,107 253,111 309,107 333,104 379,99 424,103 486,94 489,126 500,132 503,132 505,133 510,133 601,142 632,146 693,153 696,153 758,165 779,168 842,175 875,179 884,180 932,192 950,197 1011,200 1020,200"/>
  <polyline class="index-contour" points="831,0 800,14 758,20 697,21 693,21 632,22 581,26 548,29 505,33 482,36 459,44 437,64 379,71 331,60 282,54 253,49 237,49 215,44 162,32 126,28 77,27 45,28 0,27"/>
  <polyline class="index-contour" points="1677,0 1690,17 1671,34 1755,39 1768,42 1771,43 1772,44 1775,46 1768,77 1735,55 1691,61 1642,57 1588,63 1595,44 1533,38 1516,39 1503,39 1465,44 1492,52 1516,62 1575,67 1579,88 1615,97 1642,101 1664,95 1767,88 1768,88 1769,88 1885,91 1895,91 1923,97 1975,104 1989,120 2008,132 2012,135 2021,140 2076,150 2088,152 2147,173 2151,174 2155,175 2168,182 2203,200"/>
  <polyline class="index-contour" points="1053,200 1011,194 981,186 941,175 910,166 884,161 823,153 815,151 758,143 737,139 637,134 632,133 629,133 619,132 621,128 632,122 688,107 714,103 758,94 767,91 834,88 862,80 884,77 903,50 895,44 909,35 924,14 996,5 1011,2 1017,2 1109,10 1137,11 1181,15 1224,14 1263,29 1315,26 1302,44 1351,57 1389,73 1413,80 1433,88 1462,107 1516,121 1534,125 1595,132 1638,133 1642,133 1645,133 1650,132 1713,112 1768,105 1821,106 1841,107 1895,108 1937,117 1961,132 1980,146 2021,171 2030,172 2039,175 2055,187 2072,200"/>
  <polyline class="index-contour" points="119,88 124,89 126,89 131,89 223,98 253,100 283,98 354,88 293,74 253,67 194,67 162,75 126,76 117,84 119,88"/>
  <polyline points="577,44 604,54 632,62 677,60 702,44 645,39 632,39 621,40 577,44"/>
  <polyline points="1002,88 1010,88 1011,88 1011,88 1015,88 1011,88 1011,88 1010,88 1002,88"/>
  <polyline points="1618,0 1570,19 1516,24 1455,23 1448,24 1389,22 1332,20 1320,0"/>
  <polyline class="index-contour" points="1156,200 1137,200 1087,193 1015,175 1013,175 1011,174 985,167 945,154 884,141 863,139 820,132 852,120 884,116 945,109 950,109 1011,105 1056,104 1093,103 1137,102 1182,104 1214,88 1201,66 1263,69 1293,77 1319,88 1309,104 1263,121 1241,124 1252,132 1256,134 1263,135 1273,135 1368,139 1389,140 1416,141 1482,143 1516,144 1553,145 1600,146 1642,146 1675,143 1722,132 1747,124 1768,121 1797,122 1873,124 1895,125 1907,127 1914,132 1933,145 1948,157 1977,175 1963,196 1966,200 1920,200"/>
  <polyline points="234,88 249,89 253,89 257,89 266,88 258,86 253,85 245,85 234,88"/>
  <polyline class="index-contour" points="955,44 971,58 1011,65 1072,66 1075,66 1137,68 1200,66 1211,44 1174,31 1137,27 1084,25 1063,26 1011,24 975,32 955,44"/>
  <polyline points="1447,0 1494,7 1516,8 1534,6 1549,0"/>
  <polyline class="index-contour" points="1195,199 1137,183 1124,180 1106,175 1064,157 1011,147 986,140 941,132 986,123 1011,122 1042,121 1100,119 1137,118 1172,119 1189,132 1214,149 1263,152 1325,154 1328,154 1389,156 1440,158 1468,159 1516,160 1559,161 1596,159 1642,160 1704,153 1711,152 1768,140 1805,144 1851,147 1895,153 1915,169 1925,175 1919,184 1895,191 1834,198 1829,198 1768,200 1723,200 1681,200 1642,200 1618,200"/>
  <polyline points="1095,44 1134,45 1137,45 1139,45 1140,44 1138,43 1137,43 1135,43 1095,44"/>
  <polyline class="index-contour" points="1313,200 1263,190 1244,182 1216,175 1239,167 1263,169 1281,169 1380,172 1389,172 1398,173 1487,175 1509,178 1516,178 1569,200"/>
  <polyline class="index-contour" points="1543,175 1605,188 1642,181 1657,180 1745,184 1768,184 1787,182 1831,175 1791,168 1768,165 1750,169 1653,172 1642,173 1634,173 1543,175"/>
</svg>