<svg class="topo-divider" viewBox="0 0 2400 200" preserveAspectRatio="none" xmlns="http://www.w3.org/2000/svg">
  <polyline class="index-contour" points="0,33 26,34 99,35 126,36 162,38 223,36 253,38 292,39 363,31 379,32 411,37 418,25 384,24 379,22 370,22 282,15 253,15 215,12 170,10 126,7 64,3 60,3 0,0"/>
  <polyline points="461,69 495,73 505,75 524,76 586,69 536,59 505,44 457,52 461,69"/>
  <polyline class="index-contour" points="0,42 54,44 72,44 126,47 183,50 205,53 253,56 288,57 352,69 374,71 379,71 388,72 471,81 505,88 568,91 569,91 632,100 661,103 663,113 721,126 758,138 804,141 867,157 875,160 884,159 888,158 902,157 922,144 941,133 960,113 915,103 884,92 837,86 770,69 761,68 758,68 750,67 666,57 632,47 595,38 566,25 523,19 505,17 470,13 422,11 379,1 327,0 307,0 253,0 209,0 152,0 126,0 110,0"/>
  <polyline points="246,0 253,0 261,0"/>
  <polyline class="index-contour" points="453,0 505,6 548,11 617,20 632,22 639,23 649,25 707,43 758,51 798,55 869,64 884,66 890,67 897,69 953,89 1011,103 1027,107 1064,113 1088,130 1137,135 1159,149 1181,157 1169,168 1137,169 1111,166 1026,162 1011,161 990,164 924,171 884,179 833,183 811,200 777,200 758,200 726,200 664,200 709,184 725,169 741,157 685,139 632,126 608,121 577,113 535,103 505,101 447,90 433,88 379,80 351,79 262,73 253,72 245,72 227,69 155,59 126,58 88,56 49,52 0,50"/>
  <polyline points="2267,0 2274,0 2309,0 2347,0 2355,10 2380,25 2382,32 2389,66 2391,69 2392,72 2400,90"/>
  <polyline class="index-contour" points="478,0 505,0 559,0 574,2 632,9 667,13 720,25 740,32 758,34 795,38 836,42 884,48 920,57 963,69 987,78 1011,84 1062,95 1106,102 1137,108 1145,110 1152,113 1179,128 1194,137 1248,157 1240,165 1263,166 1304,187 1360,200"/>
  <polyline class="index-contour" points="1235,200 1197,200 1180,186 1137,186 1078,180 1072,180 1011,175 957,182 899,196 884,199 879,199 877,200 800,200"/>
  <polyline class="index-contour" points="505,200 545,200 564,200 596,189 632,178 661,167 676,157 653,150 632,144 573,133 531,122 505,116 502,114 501,113 427,96 379,90 328,87 298,85 253,83 214,83 129,69 127,69 126,69 125,69 28,60 0,58"/>
  <polyline class="index-contour" points="2274,200 2300,200 2296,200 2288,196 2274,189 2258,162 2255,157 2258,152 2274,145 2320,129 2337,113 2329,94 2326,87 2318,69 2313,56 2298,34 2295,25 2287,21 2274,18 2216,2"/>
  <polyline class="index-contour" points="601,0 632,0 693,3 696,3 758,15 779,18 842,25 875,29 884,30 932,42 950,47 1011,64 1020,66 1030,69 1093,85 1137,93 1170,102 1198,113 1223,127 1263,142 1286,149 1310,157 1344,173 1389,185 1409,194 1436,200"/>
  <polyline points="1172,200 1137,200 1132,200 1115,200 1039,191 1011,189 985,192 947,200 904,200 884,200"/>
  <polyline class="index-contour" points="410,200 459,200 482,193 505,185 544,170 591,157 533,147 505,140 466,127 453,113 408,103 379,99 331,97 303,96 253,93 195,93 176,96 126,96 74,87 29,69 6,67 0,67"/>
  <polyline class="index-contour" points="2012,0 2021,0 2076,0 2088,2 2147,23 2151,24 2155,25 2168,32 2203,50 2228,69 2232,84 2247,104 2250,113 2220,132 2212,135 2199,157 2210,179 2210,179 2221,200"/>
  <polyline class="index-contour" points="0,116 8,116 108,119 126,119 142,119 163,113 225,103 253,103 277,105 362,107 379,108 389,110 405,113 419,127 421,142 462,157 419,171 379,185 360,194 354,200"/>
  <polyline points="926,200 1004,200 1011,200 1016,200 1106,200"/>
  <polyline class="index-contour" points="1503,200 1501,200 1436,185 1389,164 1378,161 1370,157 1316,139 1263,122 1251,117 1244,113 1195,93 1137,77 1122,74 1101,69 1053,55 1011,44 981,36 941,25 910,16 884,11 823,3 815,1 758,0 737,0 637,0"/>
  <polyline class="index-contour" points="1980,0 2021,21 2030,22 2039,25 2055,37 2072,52 2104,69 2097,87 2095,95 2086,113 2113,125 2135,153 2141,157 2141,159 2147,168 2158,197 2160,200 2159,200"/>
  <polyline class="index-contour" points="1549,200 1543,200 1531,196 1516,191 1460,176 1414,157 1408,151 1389,143 1347,128 1300,113 1283,106 1263,99 1225,83 1173,69 1156,63 1137,57 1087,43 1015,25 1013,25 1011,24 985,17 945,4 884,0 863,0"/>
  <polyline points="1256,0 1263,0 1273,0 1368,0 1389,0 1416,0 1482,0 1516,0 1553,0 1600,0 1642,0 1675,0"/>
  <polyline class="index-contour" points="1933,0 1948,7 1977,25 1963,46 1966,50 1920,61 1895,68 1892,68 1872,69 1885,73 1895,88 1907,109 1906,113 1989,124 2021,145 2036,152 2043,157 2047,166 2052,190 2057,200 2051,200"/>
  <polyline class="index-contour" points="0,140 59,136 65,136 126,134 183,133 233,120 253,119 306,139 325,157 297,172 291,188 278,200 266,200 253,200 211,200"/>
  <polyline points="0,166 27,167 38,157 104,149 126,148 152,148 195,157 177,175 126,200 124,200 125,200 43,200"/>
  <polyline class="index-contour" points="1579,200 1551,189 1516,179 1480,169 1451,157 1435,141 1389,121 1377,117 1364,113 1318,94 1263,75 1256,72 1246,69 1195,49 1137,33 1124,30 1106,25 1064,7 1011,0 986,0"/>
  <polyline class="index-contour" points="1214,0 1263,2 1325,4 1328,4 1389,6 1440,8 1468,9 1516,10 1559,11 1596,9 1642,10 1704,3 1711,2 1768,0 1805,0 1851,0 1895,3 1915,19 1925,25 1919,34 1895,41 1834,48 1829,48 1768,53 1723,54 1681,56 1642,56 1618,61 1614,69 1621,77 1642,89 1689,97 1733,113 1761,116 1768,117 1783,118 1861,125 1895,129 1946,139 1982,157 1989,168 1991,190 1996,200 1979,200"/>
  <polyline class="index-contour" points="1618,200 1614,200 1571,182 1516,166 1501,162 1488,157 1473,142 1467,130 1433,113 1422,102 1389,96 1354,82 1319,69 1313,52 1263,40 1244,32 1216,25 1239,17 1263,19 1281,19 1380,22 1389,22 1398,23 1487,25 1509,28 1516,28 1569,51 1559,69 1580,91 1582,92 1612,113 1627,118 1642,118 1662,120 1729,127 1768,131 1826,137 1843,139 1895,145 1917,149 1932,157 1942,174 1950,182 1959,200"/>
  <polyline points="0,200 0,200 0,200 0,200 0,200"/>
  <polyline class="index-contour" points="1543,25 1605,38 1642,31 1657,30 1745,34 1768,34 1787,32 1831,25 1791,18 1768,15 1750,19 1653,22 1642,23 1634,23 1543,25"/>
  <polyline points="1505,113 1509,115 1516,130 1561,141 1531,157 1594,174 1642,196 1653,197 1655,200 1667,200"/>
  <polyline class="index-contour" points="1895,200 1914,200 1922,200 1918,193 1895,168 1879,162 1863,157 1793,148 1768,146 1720,140 1698,138 1642,131 1584,133 1529,113 1524,110 1516,94 1499,107 1505,113"/>
  <polyline points="1590,157 1619,165 1642,176 1701,181 1713,200 1731,200"/>
  <polyline points="1810,200 1868,200 1821,183 1768,166 1723,173 1741,157 1669,148 1642,145 1611,146 1590,157"/>
</svg>