<svg class="topo-divider" viewBox="0 0 2400 200" preserveAspectRatio="none" xmlns="http://www.w3.org/2000/svg">
  <polyline points="1422,0 1389,13 1329,0"/>
  <polyline points="505,0 489,10 480,16 438,36 379,48 341,29 314,16 292,2 253,0"/>
  <polyline points="2274,3 2293,9 2305,16 2352,32 2365,48 2382,60 2383,66 2400,73"/>
  <polyline class="index-contour" points="179,0 230,16 241,20 253,22 297,44 329,60 342,73 379,91 428,87 450,84 505,79 526,67 544,60 551,44 557,34 564,16 566,0 567,0"/>
  <polyline class="index-contour" points="1219,0 1222,2 1229,16 1241,23 1263,46 1290,50 1345,60 1375,65 1389,65 1396,62 1402,60 1418,50 1443,34 1473,16 1482,4"/>
  <polyline class="index-contour" points="2189,0 2203,0 2227,16 2243,26 2274,38 2304,49 2319,60 2322,76 2274,102 2273,103 2272,104 2272,104 2274,105 2282,106 2358,118 2400,123"/>
  <polyline class="index-contour" points="0,18 10,19 115,20 126,26 176,42 247,58 253,59 253,59 254,60 255,60 276,96 289,104 317,125 321,127 354,147 374,149 379,149 383,149 416,147 465,133 505,126 528,112 530,104 569,82 589,74 628,60 628,58 632,45 638,18 635,16 636,14 632,5"/>
  <polyline class="index-contour" points="1166,6 1170,16 1203,37 1207,40 1230,60 1226,73 1242,96 1237,104 1241,111 1247,142 1249,147 1258,149 1263,149 1267,149 1287,147 1307,132 1313,121 1383,104 1388,103 1389,103 1445,79 1490,60 1499,54 1516,43 1530,21 1533,16 1533,10"/>
  <polyline class="index-contour" points="2147,2 2160,11 2166,16 2187,30 2201,41 2247,60 2239,72 2222,86 2215,104 2213,124 2217,128 2212,147 2249,156 2274,158 2313,161 2354,163 2400,166"/>
  <polyline class="index-contour" points="0,31 59,39 109,60 114,64 126,85 150,95 160,104 160,115 126,135 121,146 109,147 123,148 126,149 131,149 239,152 253,154 272,154 341,161 379,160 411,158 484,155 505,154 519,152 597,147 603,137 585,120 588,104 605,94 632,84 669,73 736,67 758,64 771,64 823,60 775,54 758,53 698,37 676,16 679,0 673,0"/>
  <polyline class="index-contour" points="1083,0 1091,0 1026,16 1116,23 1137,28 1171,48 1186,60 1181,75 1137,102 1135,103 1119,104 1134,105 1137,109 1158,140 1161,147 1228,160 1263,160 1289,156 1379,151 1389,150 1396,150 1406,147 1420,137 1436,120 1475,104 1493,96 1516,86 1537,67 1540,60 1547,49 1558,31 1567,16 1568,0 1569,0"/>
  <polyline class="index-contour" points="2078,0 2113,16 2112,28 2147,57 2150,59 2151,60 2151,61 2160,99 2158,104 2158,107 2147,114 2094,129 2025,146 2021,147 2020,147 2018,147 2017,149 1986,179 1983,191 2013,194 2021,195 2033,195 2057,191 2099,174 2147,176 2177,181 2253,184 2274,186 2286,187 2335,191 2376,200 2400,200"/>
  <polyline class="index-contour" points="0,151 13,152 96,158 126,160 177,165 200,166 253,174 302,174 323,172 379,171 438,168 448,167 505,164 542,160 606,156 632,154 650,154 662,147 661,137 645,108 644,104 703,84 758,76 808,77 843,74 884,75 923,73 917,60 929,44 884,40 825,36 817,36 758,34 728,26 718,16 719,2"/>
  <polyline class="index-contour" points="1045,0 1011,0 978,5 942,16 962,33 1011,30 1071,39 1104,48 1137,57 1140,59 1141,60 1141,61 1137,63 1076,82 1070,83 1011,91 969,89 961,104 992,110 1011,120 1061,130 1090,147 1098,161 1137,169 1194,172 1203,170 1263,172 1312,164 1347,162 1389,158 1414,156 1453,147 1473,133 1516,116 1539,112 1543,104 1551,91 1567,77 1575,60 1587,40 1591,34 1601,16 1602,2 1602,0"/>
  <polyline class="index-contour" points="1983,0 2021,0 2047,7 2063,16 2062,30 2021,59 2021,60 2021,60 2021,60 2010,100 2001,104 1940,119 1895,125 1867,138 1785,147 1786,153 1788,184 1789,191 1847,200 1895,200"/>
  <polyline points="948,200 947,200 884,197"/>
  <polyline points="0,44 32,49 59,60 79,76 87,90 100,104 74,122 71,128 43,133 0,143"/>
  <polyline points="0,200 60,200 67,200 126,200 174,200 241,191 170,176 126,172 68,168 56,167 0,163"/>
  <polyline points="0,129 43,118 64,104 48,87 15,65 9,60 5,58 0,57"/>
  <polyline points="275,191 344,200 379,200 426,200 451,200 505,200 562,200 575,200"/>
  <polyline class="index-contour" points="693,200 697,200 758,200 779,198 798,191 860,183 884,184 915,181 992,185 1011,164 1031,154 1027,147 1021,144 1011,142 969,118 898,104 901,98 884,98 868,98 800,89 758,88 727,93 695,104 699,124 698,127 701,147 674,162 632,163 574,168 565,168 505,174 463,177 409,181 379,183 355,183 275,191"/>
  <polyline points="806,0 763,14 854,5 884,11 944,0"/>
  <polyline points="966,60 972,73 1011,74 1041,70 1074,60 1039,50 1011,46 975,47 966,60"/>
  <polyline points="1165,191 1225,200 1263,200"/>
  <polyline class="index-contour" points="1637,193 1638,191 1636,189 1630,152 1596,147 1563,131 1516,140 1506,144 1501,147 1433,162 1389,166 1333,172 1305,177 1263,183 1237,182 1165,191"/>
  <polyline class="index-contour" points="1636,14 1636,16 1634,19 1615,50 1610,60 1603,73 1603,90 1593,104 1585,123 1642,140 1656,143 1732,135 1768,137 1831,125 1884,104 1887,101 1895,95 1943,76 1960,60 1988,48 2012,19 2016,16 1956,0 1895,0 1858,0"/>
  <polyline points="0,200 36,200 103,199 126,199 145,198 172,191 144,185 126,184 98,181 40,177 0,174"/>
  <polyline points="0,114 18,110 27,104 21,96 0,82"/>
  <polyline class="index-contour" points="411,191 484,199 505,199 535,200 584,200 632,200 676,200 733,191 691,171 632,171 585,175 533,182 505,184 489,185 411,191"/>
  <polyline class="index-contour" points="740,147 710,164 758,167 791,180 834,174 884,177 947,169 948,169 948,169 991,147 947,126 884,110 857,113 788,104 766,101 758,101 752,101 746,104 746,108 739,141 740,147"/>
  <polyline points="1276,191 1338,200 1389,200"/>
  <polyline points="1583,200 1584,200 1597,191 1572,172 1516,159 1457,168 1452,169 1389,174 1350,178 1276,191"/>
  <polyline class="index-contour" points="1645,104 1715,122 1768,125 1808,117 1842,104 1858,91 1895,62 1898,61 1900,60 1927,48 1956,37 1984,16 1939,0 1895,0 1839,0 1811,0"/>
  <polyline points="1705,0 1705,0 1705,0 1675,16 1668,25 1645,59 1644,60 1645,61 1644,103 1645,104"/>
  <polyline points="0,195 11,195 71,191 12,187 0,186"/>
  <polyline points="531,191 604,200 632,200 657,200 690,191 666,179 632,180 605,182 531,191"/>
  <polyline points="777,147 829,166 884,170 932,164 965,147 932,131 884,119 821,125 820,125 820,126 777,147"/>
  <polyline points="1326,191 1361,200 1389,200 1444,200 1463,200"/>
  <polyline points="1548,200 1556,191 1544,182 1516,175 1484,180 1426,179 1389,181 1368,184 1326,191"/>
  <polyline class="index-contour" points="1715,104 1746,111 1768,113 1786,109 1800,104 1826,84 1829,81 1856,60 1866,50 1895,45 1934,29 1952,16 1923,6 1895,2 1848,0 1811,1 1768,0 1732,3 1715,16 1701,36 1698,40 1684,60 1696,78 1695,85 1715,104"/>
  <polyline points="606,191 625,194 632,194 638,193 646,191 640,188 632,188 625,189 606,191"/>
  <polyline points="811,147 847,160 884,163 917,159 939,147 916,136 884,128 841,132 811,147"/>
  <polyline points="1376,191 1384,193 1389,194 1401,195 1507,191 1397,189 1389,189 1385,190 1376,191"/>
  <polyline class="index-contour" points="1724,60 1732,72 1768,96 1800,71 1815,60 1834,38 1895,28 1912,22 1919,16 1907,12 1895,10 1875,9 1779,12 1768,11 1759,13 1755,16 1751,22 1733,47 1724,60"/>
  <polyline points="845,147 864,154 884,156 902,153 914,147 901,141 884,137 861,139 845,147"/>
  <polyline points="1764,60 1765,61 1768,63 1772,61 1773,60 1775,57 1768,53 1765,58 1764,60"/>
  <polyline points="880,147 882,148 884,148 886,148 888,147 886,147 884,146 882,146 880,147"/>
</svg>