<svg class="topo-divider" viewBox="0 0 2400 200" preserveAspectRatio="none" xmlns="http://www.w3.org/2000/svg">
  <polyline points="758,0 804,0 867,7 875,10 884,9 888,8 902,7 922,0"/>
  <polyline class="index-contour" points="1137,0 1159,0 1181,7 1169,18 1137,19 1111,16 1026,12 1011,11 990,14 924,21 884,29 833,33 811,51 777,57 758,61 726,62 664,51 709,34 725,19 741,7 685,0"/>
  <polyline points="485,95 491,100 505,100 513,97 533,95 522,89 505,89 496,91 485,95"/>
  <polyline class="index-contour" points="1194,0 1248,7 1240,15 1263,16 1304,37 1360,51 1322,71 1263,73 1235,61 1197,51 1180,36 1137,36 1078,30 1072,30 1011,25 957,32 899,46 884,49 879,49 877,51 800,66 758,73 702,75 643,95 635,96 632,97 619,99 547,109 505,123 457,122 436,139 417,152 379,174 346,150 322,139 347,128 379,108 412,106 399,95 455,77 505,66 545,65 564,51 596,39 632,28 661,17 676,7 653,0 632,0 573,0"/>
  <polyline points="1384,95 1386,96 1389,99 1392,95 1392,95 1392,94 1389,89 1363,86 1384,95"/>
  <polyline class="index-contour" points="2400,91 2384,89 2379,95 2327,113 2274,112 2262,99 2260,95 2261,90 2274,64 2300,60 2296,51 2288,46 2274,39 2258,12 2255,7 2258,2 2274,0"/>
  <polyline class="index-contour" points="1263,0 1286,0 1310,7 1344,23 1389,35 1409,44 1436,51 1442,69 1445,75 1451,95 1443,113 1438,122 1430,139 1422,150 1389,180 1329,160 1299,139 1288,130 1263,107 1259,96 1259,95 1238,86 1204,71 1172,63 1137,54 1132,53 1115,51 1039,41 1011,39 985,42 947,51 904,58 884,63 824,74 812,76 758,85 734,86 708,95 659,104 632,110 577,120 521,139 520,144 505,165 489,177 480,182 438,200 379,200 341,196 314,182 292,169 253,151 235,145 224,139 232,132 253,126 294,109 319,95 347,84 379,71 410,62 459,51 482,43 505,35 544,20 591,7 533,0 505,0"/>
  <polyline class="index-contour" points="2212,0 2199,7 2210,29 2210,29 2221,51 2215,71 2214,74 2209,95 2218,114 2225,122 2235,139 2247,148 2274,170 2293,176 2305,182 2352,199 2365,200"/>
  <polyline class="index-contour" points="421,0 462,7 419,21 379,35 360,44 354,51 307,70 253,90 243,91 186,95 146,102 139,134 134,139 148,146 179,164 230,182 241,186 253,189 297,200"/>
  <polyline class="index-contour" points="551,200 557,200 564,182 566,161 567,160 569,139 601,128 632,122 682,112 738,101 758,98 763,97 776,95 849,82 884,76 926,65 1004,53 1011,52 1016,53 1106,62 1137,69 1179,80 1215,95 1211,113 1215,122 1210,139 1219,154 1222,168 1229,182 1241,190 1263,200"/>
  <polyline class="index-contour" points="1418,200 1443,200 1473,182 1482,171 1490,147 1496,139 1499,133 1509,97 1510,95 1510,93 1503,55 1501,51 1436,35 1389,14 1378,11 1370,7 1316,0"/>
  <polyline class="index-contour" points="2135,3 2141,7 2141,9 2147,18 2158,47 2160,51 2159,55 2159,91 2158,95 2160,99 2166,132 2170,139 2189,153 2203,163 2227,182 2243,193 2274,200 2304,200"/>
  <polyline points="0,185 10,186 115,186 126,193 176,200"/>
  <polyline class="index-contour" points="632,200 638,185 635,182 636,181 632,172 617,144 617,139 625,136 632,135 656,130 705,120 758,110 786,104 852,95 874,91 884,89 943,74 948,73 1011,62 1063,69 1080,71 1137,83 1155,88 1170,95 1168,106 1141,137 1141,139 1141,140 1166,172 1170,182 1203,200 1207,200"/>
  <polyline class="index-contour" points="1516,200 1530,187 1533,182 1533,176 1538,146 1538,139 1544,129 1548,106 1559,95 1551,82 1549,62 1543,51 1531,46 1516,41 1460,26 1414,7 1408,1 1389,0"/>
  <polyline class="index-contour" points="2021,0 2036,2 2043,7 2047,16 2052,40 2057,51 2051,61 2021,83 2016,93 2012,95 2013,98 2021,101 2069,122 2086,139 2119,148 2147,169 2160,178 2166,182 2187,196 2201,200"/>
  <polyline points="0,0 59,0 65,0 126,0"/>
  <polyline class="index-contour" points="306,0 325,7 297,22 291,38 278,51 266,56 253,61 211,65 180,70 126,74 87,81 2,94 0,94"/>
  <polyline class="index-contour" points="0,16 27,17 38,7 104,0 126,0 152,0 195,7 177,25 126,50 124,50 125,51 43,66 0,73"/>
  <polyline class="index-contour" points="698,200 676,182 679,166 673,153 676,139 728,128 758,122 808,112 852,106 884,101 899,100 908,95 966,79 1011,71 1058,78 1125,95 1122,100 1103,127 1096,139 1083,157 1091,167 1026,182 1116,190 1137,195 1171,200"/>
  <polyline class="index-contour" points="1547,200 1558,197 1567,182 1568,164 1569,157 1570,139 1583,118 1590,113 1606,95 1596,79 1588,70 1579,51 1551,39 1516,29 1480,19 1451,7 1435,0"/>
  <polyline class="index-contour" points="1946,0 1982,7 1989,18 1991,40 1996,51 1979,65 1973,78 1933,95 1939,110 1916,131 1928,139 2012,142 2021,145 2078,163 2113,182 2112,195"/>
  <polyline class="index-contour" points="929,200 884,200 825,200 817,200 758,200 728,193 718,182 719,169 737,146 738,139 751,136 758,135 784,129 830,120 884,111 924,109 950,95 985,86 1011,81 1039,85 1078,95 1066,114 1063,120 1053,139 1045,150 1011,161 978,171 942,182 962,199 1011,197 1071,200 1104,200"/>
  <polyline class="index-contour" points="1587,200 1591,200 1601,182 1602,169 1602,153 1603,139 1610,127 1642,102 1654,99 1657,95 1652,91 1642,84 1618,59 1614,51 1571,32 1516,16 1501,12 1488,7 1473,0"/>
  <polyline class="index-contour" points="1826,0 1843,0 1895,0 1917,0 1932,7 1942,24 1950,32 1959,51 1941,67 1895,85 1879,89 1868,95 1860,107 1852,124 1842,139 1877,145 1895,146 1927,150 1983,152 2021,165 2047,173 2063,182 2062,197"/>
  <polyline points="0,51 0,51 0,51 0,51 0,51"/>
  <polyline points="794,139 806,155 763,181 854,172 884,178 944,159 1010,139 944,118 884,121 850,127 794,139"/>
  <polyline points="1039,200 1011,200 975,200"/>
  <polyline points="993,95 960,112 1011,137 1027,101 1031,95 1019,92 1011,91 1003,92 993,95"/>
  <polyline class="index-contour" points="1561,0 1531,7 1594,24 1642,46 1653,47 1655,51 1667,59 1691,78 1715,95 1703,116 1642,132 1636,136 1635,139 1634,141 1636,180 1636,182 1634,185"/>
  <polyline class="index-contour" points="1988,200 2012,185 2016,182 1956,161 1895,153 1858,151 1783,139 1788,132 1808,108 1816,95 1848,78 1895,65 1914,58 1922,51 1918,43 1895,18 1879,12 1863,7 1793,0 1768,0 1720,0 1698,0"/>
  <polyline points="846,139 854,149 884,155 910,147 937,139 909,130 884,131 870,134 846,139"/>
  <polyline class="index-contour" points="1590,7 1619,15 1642,26 1701,31 1713,51 1731,64 1768,91 1810,65 1868,51 1821,33 1768,16 1723,23 1741,7 1669,0 1642,0 1611,0 1590,7"/>
  <polyline class="index-contour" points="1927,200 1956,200 1984,182 1939,167 1895,161 1839,158 1811,153 1768,149 1705,160 1705,160 1705,161 1675,182 1668,192"/>
  <polyline class="index-contour" points="1866,200 1895,200 1934,196 1952,182 1923,173 1895,169 1848,166 1811,168 1768,163 1732,170 1715,182 1701,200 1698,200"/>
  <polyline class="index-contour" points="1834,200 1895,195 1912,188 1919,182 1907,178 1895,177 1875,176 1779,179 1768,178 1759,179 1755,182 1751,189 1733,200"/>
</svg>