<svg class="topo-divider" viewBox="0 0 2400 200" preserveAspectRatio="none" xmlns="http://www.w3.org/2000/svg">
  <polyline class="index-contour" points="540,200 524,194 505,190 457,183 434,181 379,168 350,166 271,163 253,162 226,165 147,163 126,187 120,198 121,200"/>
  <polyline points="1844,200 1787,194 1768,193 1751,194 1670,200"/>
  <polyline class="index-contour" points="0,108 11,108 79,112 113,117 126,117 140,117 232,120 253,120 283,123 331,129 379,133 420,142 463,156 487,163 505,165 560,175 573,177 624,197 631,200"/>
  <polyline class="index-contour" points="1964,200 1934,186 1895,181 1834,179 1831,178 1768,177 1710,180 1698,181 1642,184 1598,185 1556,186 1516,187 1487,190 1455,200"/>
  <polyline class="index-contour" points="0,81 46,84 72,87 126,91 180,94 199,94 253,96 294,98 349,102 379,104 404,104 458,112 488,118 505,124 566,133 570,134 632,144 656,148 686,156 724,168 758,192 772,195 876,197 884,198 890,198 1004,198 1011,198 1018,198 1113,200"/>
  <polyline points="2249,0 2274,0 2313,0 2354,0 2400,0"/>
  <polyline class="index-contour" points="2156,200 2179,189 2198,174 2220,175 2274,168 2297,164 2342,156 2287,152 2274,151 2257,150 2161,151 2147,151 2134,151 2036,151 2021,151 2011,153 1897,155 1895,156 1893,156 1884,156 1782,161 1768,160 1754,161 1666,164 1642,166 1613,166 1544,166 1516,166 1473,171 1432,171 1389,183 1349,186 1282,193 1263,195 1251,196 1152,200"/>
  <polyline class="index-contour" points="2400,117 2389,116 2327,112 2286,108 2274,106 2257,106 2181,101 2147,101 2125,105 2034,108 2021,109 2014,110 2001,112 1932,125 1895,129 1837,132 1828,133 1768,136 1718,139 1687,141 1642,143 1621,149 1538,149 1516,151 1493,148 1413,148 1389,141 1341,139 1309,140 1263,138 1207,137 1191,137 1137,135 1082,131 1035,121 1011,117 999,116 983,112 901,106 884,104 855,102 800,98 758,94 704,87 655,77 632,72 624,71 592,68 508,68 505,67 502,67 488,68 415,81 379,81 348,79 277,77 253,76 234,75 136,68 128,68 126,68 125,68 14,63 0,64"/>
  <polyline points="239,0 253,0 272,0 341,0 379,0 411,0 484,0 505,0 519,0"/>
  <polyline points="1228,0 1263,0 1289,0 1379,0 1389,0"/>
  <polyline class="index-contour" points="1986,12 1983,25 2013,28 2021,28 2033,29 2057,25 2099,8 2147,9 2177,14 2253,17 2274,20 2286,20 2335,25 2376,33 2400,33"/>
  <polyline class="index-contour" points="0,0 13,0 96,0 126,0 177,0 200,0 253,8 302,7 323,5 379,5 438,1 448,1 505,0 542,0 606,0 632,0 650,0"/>
  <polyline points="1098,0 1137,2 1194,5 1203,4 1263,5 1312,0 1347,0 1389,0 1414,0"/>
  <polyline class="index-contour" points="1786,0 1788,18 1789,25 1847,41 1895,46 1947,50 1975,52 2021,56 2053,57 2094,68 2049,78 2021,81 1968,87 1952,88 1895,97 1856,99 1786,106 1768,107 1755,108 1694,112 1647,114 1642,114 1609,124 1578,134 1516,140 1455,133 1392,112 1392,111 1389,103 1346,83 1324,68 1271,66 1263,64 1244,62 1160,60 1137,56 1100,56 1039,58 1011,58 948,47 947,47 884,30 833,51 812,50 758,55 734,60 662,58 632,60 604,59 535,58 505,56 467,55 403,60 379,60 345,57 292,55 253,49 216,56 170,53 126,56 92,57 40,54 0,55"/>
  <polyline points="0,46 60,45 67,45 126,44 174,41 241,25 170,9 126,5 68,1 56,0 0,0"/>
  <polyline class="index-contour" points="275,25 344,37 379,40 426,41 451,43 505,44 562,49 575,49 632,52 693,47 697,47 758,34 779,32 798,25 860,16 884,18 915,14 992,18 1011,0 1031,0"/>
  <polyline points="674,0 632,0 574,1 565,1 505,7 463,10 409,14 379,16 355,16 275,25"/>
  <polyline class="index-contour" points="1165,25 1225,38 1263,41 1308,53 1351,55 1389,60 1408,62 1428,68 1431,83 1435,96 1439,112 1478,125 1516,130 1554,126 1597,112 1602,98 1619,77 1623,68 1628,63 1637,26 1638,25 1636,22 1630,0"/>
  <polyline points="1433,0 1389,0 1333,5 1305,10 1263,16 1237,16 1165,25"/>
  <polyline points="0,37 36,37 103,33 126,32 145,31 172,25 144,19 126,17 98,15 40,11 0,8"/>
  <polyline class="index-contour" points="411,25 484,32 505,32 535,35 584,41 632,44 676,40 733,25 691,4 632,5 585,8 533,15 505,18 489,19 411,25"/>
  <polyline points="710,0 758,0 791,13 834,7 884,11 947,3 948,3 948,2"/>
  <polyline class="index-contour" points="1276,25 1338,43 1389,49 1433,53 1478,68 1480,81 1483,101 1485,112 1501,118 1516,119 1531,118 1548,112 1553,99 1555,82 1562,68 1583,48 1584,45 1597,25 1572,5 1516,0 1457,1 1452,2 1389,7 1350,11 1276,25"/>
  <polyline points="0,28 11,28 71,25 12,20 0,19"/>
  <polyline points="531,25 604,34 632,36 657,33 690,25 666,13 632,13 605,15 531,25"/>
  <polyline points="829,0 884,3 932,0"/>
  <polyline class="index-contour" points="1326,25 1361,35 1389,38 1444,44 1463,43 1516,60 1548,36 1556,25 1544,15 1516,8 1484,13 1426,12 1389,15 1368,17 1326,25"/>
  <polyline points="606,25 625,27 632,27 638,27 646,25 640,22 632,22 625,22 606,25"/>
  <polyline points="847,0 884,0 917,0"/>
  <polyline points="1376,25 1384,27 1389,27 1401,28 1507,25 1397,22 1389,23 1385,23 1376,25"/>
  <polyline points="864,0 884,0 902,0"/>
</svg>